<svg xmlns:xlink="http://www.w3.org/1999/xlink" xmlns="http://www.w3.org/2000/svg" viewBox="0 0 24 24" enable-background="new 0 0 24 24" fill="inherit" data-testid="link-icon" class="sc-fqkvVR eNMra-D" width="24"  height="24" ><path d="M8.3,20.1c7.5,0,11.7-6.3,11.7-11.7c0-0.2,0-0.4,0-0.5c0.8-0.6,1.5-1.3,2-2.1c-0.7,0.3-1.5,0.5-2.4,0.6
c0.9-0.5,1.5-1.3,1.8-2.3c-0.8,0.5-1.7,0.8-2.6,1C17.3,3.5,14.7,3.4,13,5c-1.1,1-1.5,2.5-1.2,3.9C8.5,8.7,5.5,7.2,3.4,4.6
c-1.1,1.9-0.5,4.3,1.3,5.5c-0.7,0-1.3-0.2-1.9-0.5c0,0,0,0,0,0.1c0,2,1.4,3.6,3.3,4c-0.6,0.2-1.2,0.2-1.9,0.1
c0.5,1.7,2.1,2.8,3.8,2.8c-1.5,1.1-3.2,1.8-5.1,1.8c-0.3,0-0.7,0-1-0.1C3.9,19.5,6.1,20.1,8.3,20.1"></path></svg>